# xmcd
#
# Track frame offsets: 
#        150
#        17700
#        33675
#        51300
#        64650
#        84300
#        99750
#        117375
#        134400
#        154050
#        171675
#        188550
#        207600
#        228225
#        244650
#        264075
#        280425
#
# Disc length: 4149 seconds
#
# Revision: 2
# Processed by: cddbd v1.5.2PL0 Copyright (c) Steve Scherf et al.
# Submitted via: ExactAudioCopy v1.3
#
DISCID=ee103311
DTITLE=Backstreet Boys - Millennnium
DYEAR=1900
DGENRE=
TTITLE0=Larger Than Life
TTITLE1=I Want it That Way
TTITLE2=Show Me The Meaning Of Being Lonely
TTITLE3=It's gotta Be You
TTITLE4=I Need You Tonight
TTITLE5=Don't Want You Back
TTITLE6=Don't Wanna Lose You Now
TTITLE7=The One
TTITLE8=Back To You Heart
TTITLE9=Spanish Eyes
TTITLE10=No one Else Comse Close
TTITLE11=The Perfect Fan
TTITLE12=I'LL Be Ther For You
TTITLE13=My herart Stays With You
TTITLE14=Christmas Time
TTITLE15=As Long As You Love Me
TTITLE16=Quit Playing Game
EXTD=
EXTT0=
EXTT1=
EXTT2=
EXTT3=
EXTT4=
EXTT5=
EXTT6=
EXTT7=
EXTT8=
EXTT9=
EXTT10=
EXTT11=
EXTT12=
EXTT13=
EXTT14=
EXTT15=
EXTT16=
PLAYORDER=
